<svg xmlns="http://www.w3.org/2000/svg" viewBox="0 0 449.693 110.991"><path d="M149.578 48.111c3.012 1.813 5.373 4.428 7.08 7.84 1.706 3.414 2.56 7.414 2.56 12 0 4.64-.854 8.668-2.56 12.08-1.708 3.414-4.068 6.027-7.08 7.84-3.014 1.813-6.44 2.72-10.28 2.72-4 0-7.414-.985-10.24-2.96-2.828-1.972-4.8-4.586-5.92-7.84v10.24h-9.12v-59.2h9.12v25.36c1.12-3.253 3.092-5.866 5.92-7.84 2.826-1.973 6.24-2.96 10.24-2.96 3.84.001 7.266.908 10.28 2.72zm-19.96 7.08c-2.028 1.2-3.627 2.907-4.8 5.12-1.173 2.214-1.76 4.76-1.76 7.64 0 2.934.586 5.494 1.76 7.68 1.173 2.188 2.772 3.881 4.8 5.08 2.026 1.2 4.32 1.801 6.88 1.801 4.053 0 7.306-1.293 9.76-3.881 2.453-2.586 3.68-6.146 3.68-10.68 0-4.479-1.228-8.026-3.68-10.64-2.454-2.612-5.707-3.92-9.76-3.92-2.561.001-4.854.6-6.88 1.8zm79.038 14.6h-33.919c.16 4.534 1.412 7.894 3.76 10.08 2.346 2.188 5.252 3.28 8.72 3.28 3.04 0 5.612-.772 7.72-2.32 2.106-1.546 3.4-3.6 3.88-6.16h9.76c-.588 3.094-1.813 5.841-3.68 8.24-1.867 2.4-4.293 4.28-7.28 5.64-2.988 1.36-6.32 2.04-10 2.04-4.268 0-8.04-.906-11.32-2.72-3.28-1.813-5.854-4.426-7.72-7.84-1.868-3.412-2.8-7.44-2.8-12.08 0-4.586.933-8.586 2.8-12 1.866-3.412 4.44-6.026 7.72-7.84 3.28-1.813 7.053-2.72 11.32-2.72 4.32 0 8.092.894 11.32 2.68 3.226 1.787 5.707 4.24 7.44 7.36 1.732 3.119 2.6 6.6 2.6 10.439-.001 1.495-.108 2.801-.321 3.921zm-10.36-11.399c-1.094-1.946-2.587-3.387-4.48-4.32-1.894-.933-3.96-1.4-6.2-1.4-3.574 0-6.56 1.094-8.96 3.28-2.4 2.188-3.708 5.414-3.92 9.68h25.04c.107-2.881-.387-5.293-1.48-7.24zm46.4-9.04c3.119 2.64 5.025 6.174 5.72 10.6h-8.641c-.373-2.4-1.399-4.332-3.079-5.8-1.681-1.467-3.908-2.2-6.681-2.2-2.294 0-4.067.548-5.319 1.64-1.254 1.094-1.881 2.574-1.881 4.44 0 1.388.453 2.508 1.36 3.36.906.854 2.04 1.52 3.4 2 1.359.479 3.292 1.014 5.8 1.6 3.306.747 5.986 1.521 8.04 2.32 2.053.8 3.813 2.067 5.28 3.8 1.466 1.733 2.199 4.094 2.199 7.08 0 3.68-1.399 6.667-4.199 8.96-2.801 2.294-6.574 3.439-11.32 3.439-5.494 0-9.934-1.279-13.32-3.84-3.388-2.56-5.428-6.132-6.12-10.72h8.88c.267 2.4 1.333 4.348 3.2 5.84 1.866 1.494 4.32 2.24 7.36 2.24 2.187 0 3.906-.572 5.16-1.72 1.252-1.146 1.88-2.601 1.88-4.36 0-1.546-.48-2.772-1.44-3.68-.96-.906-2.16-1.613-3.6-2.12-1.44-.507-3.414-1.026-5.92-1.561-3.2-.746-5.8-1.492-7.8-2.239s-3.708-1.96-5.12-3.641c-1.414-1.68-2.12-3.96-2.12-6.84 0-3.732 1.399-6.76 4.2-9.08 2.8-2.32 6.68-3.479 11.64-3.479 5.174.001 9.321 1.32 12.441 3.961zm37.48 32.759v7.92h-5.6c-4.693 0-8.254-1.133-10.68-3.4-2.428-2.266-3.641-6.04-3.641-11.319V53.711h-6.319v-7.76h6.319v-10.96h9.2v10.96h10.64v7.76h-10.64v21.761c0 2.507.466 4.239 1.4 5.199.933.96 2.572 1.44 4.92 1.44h4.401zm.718 20.88h3.12c1.76 0 3.053-.388 3.88-1.16.826-.773 1.24-2.094 1.24-3.96v-51.92h9.2v52c0 8.692-4.374 13.04-13.12 13.04h-4.32v-8zm8.521-66.08c-1.094-.96-1.641-2.212-1.641-3.76 0-1.546.547-2.826 1.641-3.84 1.093-1.013 2.52-1.521 4.28-1.521 1.76 0 3.172.508 4.239 1.521 1.066 1.014 1.601 2.294 1.601 3.84 0 1.548-.534 2.8-1.601 3.76s-2.479 1.44-4.239 1.44c-1.761.001-3.187-.48-4.28-1.44zm51.48 11.2c3.412 1.813 6.08 4.428 8 7.84 1.92 3.414 2.88 7.414 2.88 12 0 4.64-.96 8.668-2.88 12.08-1.92 3.414-4.588 6.027-8 7.84-3.414 1.813-7.254 2.72-11.521 2.72-4.268 0-8.094-.906-11.479-2.72-3.388-1.813-6.054-4.439-8-7.88-1.947-3.44-2.92-7.452-2.92-12.04 0-4.586.973-8.586 2.92-12 1.946-3.412 4.612-6.026 8-7.84 3.386-1.813 7.212-2.72 11.479-2.72 4.268.001 8.107.908 11.521 2.72zm-18 6.8c-1.974 1.067-3.561 2.708-4.76 4.92-1.2 2.214-1.801 4.92-1.801 8.12 0 3.254.601 5.974 1.801 8.16 1.199 2.188 2.786 3.813 4.76 4.88 1.973 1.067 4.132 1.6 6.479 1.6 2.347 0 4.507-.532 6.48-1.6 1.973-1.066 3.56-2.692 4.76-4.88 1.2-2.187 1.8-4.906 1.8-8.16 0-3.2-.6-5.906-1.8-8.12-1.2-2.212-2.787-3.853-4.76-4.92-1.974-1.066-4.134-1.6-6.48-1.6-2.347 0-4.506.534-6.479 1.6zm73.24-6.8c3.013 1.813 5.372 4.428 7.08 7.84 1.706 3.414 2.56 7.414 2.56 12 0 4.64-.854 8.668-2.56 12.08-1.708 3.414-4.067 6.027-7.08 7.84-3.014 1.813-6.44 2.72-10.28 2.72-4 0-7.413-.985-10.24-2.96-2.827-1.972-4.8-4.586-5.92-7.84v10.24h-9.12v-59.2h9.12v25.36c1.12-3.253 3.093-5.866 5.92-7.84 2.827-1.973 6.24-2.96 10.24-2.96 3.839.001 7.266.908 10.28 2.72zm-19.96 7.08c-2.027 1.2-3.628 2.907-4.8 5.12-1.174 2.214-1.761 4.76-1.761 7.64 0 2.934.587 5.494 1.761 7.68 1.172 2.188 2.772 3.881 4.8 5.08 2.026 1.2 4.32 1.801 6.88 1.801 4.053 0 7.307-1.293 9.76-3.881 2.453-2.586 3.681-6.146 3.681-10.68 0-4.479-1.228-8.026-3.681-10.64-2.453-2.612-5.707-3.92-9.76-3.92-2.56.001-4.854.6-6.88 1.8zm65.319-5.839c3.119 2.64 5.025 6.174 5.72 10.6h-8.641c-.373-2.4-1.399-4.332-3.079-5.8-1.681-1.467-3.908-2.2-6.681-2.2-2.294 0-4.067.548-5.319 1.64-1.254 1.094-1.881 2.574-1.881 4.44 0 1.388.453 2.508 1.36 3.36.906.854 2.04 1.52 3.4 2 1.359.479 3.292 1.014 5.8 1.6 3.306.747 5.986 1.521 8.04 2.32 2.053.8 3.813 2.067 5.28 3.8 1.466 1.733 2.199 4.094 2.199 7.08 0 3.68-1.399 6.667-4.199 8.96-2.801 2.294-6.574 3.439-11.32 3.439-5.494 0-9.934-1.279-13.32-3.84-3.388-2.56-5.428-6.132-6.12-10.72h8.88c.267 2.4 1.333 4.348 3.2 5.84 1.866 1.494 4.32 2.24 7.36 2.24 2.187 0 3.906-.572 5.16-1.72 1.252-1.146 1.88-2.601 1.88-4.36 0-1.546-.48-2.772-1.44-3.68-.96-.906-2.16-1.613-3.6-2.12-1.44-.507-3.414-1.026-5.92-1.561-3.2-.746-5.8-1.492-7.8-2.239s-3.708-1.96-5.12-3.641c-1.414-1.68-2.12-3.96-2.12-6.84 0-3.732 1.399-6.76 4.2-9.08 2.8-2.32 6.68-3.479 11.64-3.479 5.173.001 9.321 1.32 12.441 3.961z" fill="#29599c"/><path d="M1.057 0c9.826 1.52 14.32 5.362 16.105 14.884 1.787 9.533 4.686 18.316 12.354 24.894 1.092.937 1.87 2.362 2.487 3.701 1.437 3.118 3.734 6.505.541 9.624-2.967 2.899-6.76 3.409-10.623 1.519-2.247-1.099-4.45-1.323-6.657-.014-3.128 1.856-4.243 5.776-2.23 8.594 2.184 3.057 5.132 4.252 8.648 2.214 1.262-.732 2.155-2.073 3.363-2.928 2.361-1.669 4.781-1.311 6.892.444 1.939 1.612 2.002 3.702.83 5.851-1.591 2.917-3.166 5.698-6.459 7.297-3.239 1.573-4.439 4.558-2.948 7.982 1.461 3.354 4.333 4.648 7.814 3.566 3.489-1.085 4.867-3.77 4.411-7.384-.143-1.132-.667-2.458-.268-3.37 1.226-2.804 1.749-6.748 5.36-7.205 3.613-.458 3.85 3.527 5.186 5.815 1.594 2.728 2.559 5.522 1.841 8.965-.629 3.021 1.019 5.519 4.304 6.313 3.312.8 6.084-.202 7.514-3.341 1.29-2.833.964-6.049-1.94-7.45-4.813-2.322-5.87-6.913-7.941-10.971-.778-1.524-.631-2.886.586-4.085 1.22-1.202 2.646-1.324 4.128-.563 3.783 1.944 7.982 3.083 10.321 7.341 1.723 3.137 5.013 3.897 8.275 2.297 2.95-1.447 4.513-4.118 3.707-7.413-.849-3.472-3.409-5.48-7.025-5.038-6.125.748-10.216-3.317-14.967-5.816-1.224-.644-1.93-2.054-1.298-3.437 1.209-2.647 3.116-4.759 6.014-5.57 1.244-.348 2.668-.008 3.96-.246 3.333-.615 5.392-2.645 5.562-6.064.158-3.186-1.503-5.511-4.554-6.367-3.2-.898-6.114-.077-7.48 3.224-1.604 3.876-3.718 7.783-8.123 7.756-4.574-.028-6.047-4.641-7.838-8.153-1.883-3.693-3.872-7.374-5.285-11.252-1.892-5.189.434-8.443 5.871-8.927 24.155-2.153 45.538 15.815 48.29 40.578 2.505 22.533-15.137 44.362-38.358 47.494C22.171 108.709 2.864 86.417.893 66.921c-.077-.76-.559-1.479-.852-2.218V7.875C.04 4.254-.311 2.493 1.057 0z" fill="#5fba46"/></svg>